# xmcd CD database file
#
# Track frame offsets:
#	150
#	24363
#	46057
#	63174
#	84128
#	110078
#	131911
#	142600
#	166521
#	182103
#	199426
#	222133
#	238422
#	258850
#	276791
#	297769
#
# Disc length: 4254 seconds
#
# Revision: 3
# Processed by: cddbd v1.5.2PL0 Copyright (c) Steve Scherf et al.
# Submitted via: CDex 1.70beta2
#
DISCID=de109c10
DTITLE=Various Artist - 秋元流 【虎ノ門編】 皿三
DYEAR=2002
DGENRE=Pop
TTITLE0=イッショウケンメイ。(ネプチューン)
TTITLE1=First impression(野猿 feat. CA)
TTITLE2=夜明けのMEW(小泉今日子)
TTITLE3=迷惑でしょうが・・・(とんねるず)
TTITLE4=ALL MY LIFE(郷ひろみ)
TTITLE5=やじろべえ(和田アキ子)
TTITLE6=おふろのうた(五百木祐野)
TTITLE7=ブス(山田花子)
TTITLE8=ノンタンといっしょ(千秋)
TTITLE9=じゃあね(おニャン子クラブ)
TTITLE10=一番偉い人へ(とんねるず)
TTITLE11=1ダースの言い訳(稲垣潤一)
TTITLE12=人間の駱駝(大塚ガリバー)
TTITLE13=子供達を責めないで(伊武雅刀)
TTITLE14=雨の日の映画館(橋本清二)
TTITLE15=背中(美空ひばり)
EXTD=YEAR: 2002
EXTT0=
EXTT1=
EXTT2=
EXTT3=
EXTT4=
EXTT5=
EXTT6=
EXTT7=
EXTT8=
EXTT9=
EXTT10=
EXTT11=
EXTT12=
EXTT13=
EXTT14=
EXTT15=
PLAYORDER=
